# xmcd CD database file
#
# Track frame offsets:
#	150
#	1184
#	15036
#	25971
#	48763
#	61139
#	74767
#	86207
#	94948
#	113533
#	126878
#	151461
#	161929
#	176996
#	192422
#	210857
#	226266
#
# Disc length: 3040 seconds
#
# Revision: 3
# Processed by: cddbd v1.5.2PL0 Copyright (c) Steve Scherf et al.
# Submitted via: CDex 1.51
#
DISCID=d80bde11
DTITLE=B.B. and The Blues Shacks - Midnite Diner
DYEAR=2001
DGENRE=Blues
TTITLE0=Intro
TTITLE1=Take A Chance
TTITLE2=Oh Little Girl
TTITLE3=Five To Twelve Blues
TTITLE4=Strange Kind Of Feeling
TTITLE5=Till I Made Up My Mind
TTITLE6=Rob My Soul
TTITLE7=Tempo Twist
TTITLE8=You Better Don't Wanna Know
TTITLE9=Whole Lotta Love
TTITLE10=Moonshine Blues
TTITLE11=If You Want Me To Love You
TTITLE12=Your Cash Ain't Nothing But Trash
TTITLE13=I'm Gonna Miss You (Like The Devil)
TTITLE14=Midnight Diner
TTITLE15=One More Drink
TTITLE16=Outro
EXTD=YEAR: 2001
EXTT0=
EXTT1=
EXTT2=
EXTT3=
EXTT4=
EXTT5=
EXTT6=
EXTT7=
EXTT8=
EXTT9=
EXTT10=
EXTT11=
EXTT12=
EXTT13=
EXTT14=
EXTT15=
EXTT16=
PLAYORDER=
